<?xml version="1.0" encoding="UTF-8"?>
<svg width="51px" height="65px" viewBox="0 0 51 65" version="1.1" xmlns="http://www.w3.org/2000/svg" xmlns:xlink="http://www.w3.org/1999/xlink">
    <!-- Generator: Sketch 49 (51002) - http://www.bohemiancoding.com/sketch -->
    <title>Group 3</title>
    <desc>Created with Sketch.</desc>
    <defs></defs>
    <g id="Page-1" stroke="none" stroke-width="1" fill="none" fill-rule="evenodd">
        <g id="Desktop-HD" transform="translate(-1025.000000, -872.000000)" stroke="#FEFDFB" stroke-width="2">
            <g id="Group-9" transform="translate(1003.000000, 856.000000)">
                <g id="Group-6">
                    <g id="Group-3" transform="translate(23.000000, 17.000000)">
                        <path d="M21.031,3.24 C17.637,3.24 14.887,4.386 14.887,5.8 C14.887,7.567 18.325,9 22.567,9 C27.868,9 32.167,7.209 32.167,5 C32.167,2.239 26.794,0 20.167,0 C11.882,0 7.167,2.798 7.167,6.25" id="Stroke-46"></path>
                        <path d="M15,15 C12,11 0.888,8 0.888,8 L4.728,16.263 C5.566,18.066 6,20.03 6,22.019 L6,22.867 C6,26.768 7.668,30.483 10.583,33.074 L11.119,33.55 C13.619,35.772 16.848,37 20.192,37 L21.343,37 C24.965,37 28.438,35.561 31,33 C33.562,30.439 35,26.965 35,23.343 L35,23.135 C35,20.439 35.798,17.803 37.294,15.56 L43,7 L36.672,9.109 C29.059,11.647 22.357,16.364 17.399,22.674" id="Stroke-47" stroke-linecap="round" stroke-linejoin="round"></path>
                        <path d="M24,37 C24,37 24,60 24,62 M19,62 C19,62 20,48.833 19,42" id="Stroke-48" stroke-linecap="square" stroke-linejoin="round"></path>
                        <path d="M19,57 C16.655,45.608 2.195,51.931 2.195,51.931 C2.195,51.931 4.012,53.675 6.195,57.686 C8,61 12,62 15,61" id="Path" stroke-linecap="round" stroke-linejoin="round"></path>
                        <path d="M24,51 C24,36 48.844,36.974 48.844,36.974 C48.844,36.974 46.234,40.572 44.273,48.234 C42.889,53.646 39.375,59.502 30.005,57.16" id="Path" stroke-linecap="round" stroke-linejoin="round"></path>
                        <path d="M34,47 C34,47 24,53 24,62" id="Path" stroke-linecap="round" stroke-linejoin="round"></path>
                    </g>
                </g>
            </g>
        </g>
    </g>
</svg>