<?xml version="1.0" encoding="UTF-8"?>
<svg width="62px" height="61px" viewBox="0 0 62 61" version="1.1" xmlns="http://www.w3.org/2000/svg" xmlns:xlink="http://www.w3.org/1999/xlink">
    <!-- Generator: Sketch 49 (51002) - http://www.bohemiancoding.com/sketch -->
    <title>Fill 13</title>
    <desc>Created with Sketch.</desc>
    <defs></defs>
    <g id="Page-1" stroke="none" stroke-width="1" fill="none" fill-rule="evenodd">
        <g id="Desktop-HD" transform="translate(-168.000000, -873.000000)" fill="#FEFDFB">
            <g id="Group-8" transform="translate(151.000000, 856.000000)">
                <g id="Group-4">
                    <path d="M71.673379,76.015 L24.320379,76.015 L18.755379,59.328 L77.241379,59.328 L71.673379,76.015 Z M40.159379,49.85 C40.847379,50.378 41.473379,50.917 42.040379,51.465 C41.943379,51.508 41.853379,51.566 41.779379,51.651 C40.975379,52.574 40.808379,52.766 39.625379,51.767 C38.292379,50.64 37.657379,48.055 37.436379,46.288 C39.389379,46.16 41.751379,46.324 43.194379,47.543 C44.130379,48.334 44.102379,48.84 43.051379,50.124 C43.004379,50.18 42.979379,50.246 42.952379,50.31 C42.372379,49.757 41.745379,49.214 41.054379,48.683 C40.732379,48.436 40.270379,48.496 40.023379,48.819 C39.776379,49.141 39.837379,49.602 40.159379,49.85 Z M41.915379,38.335 C42.452379,39.201 42.980379,40.269 43.468379,41.465 C43.403379,41.471 43.337379,41.474 43.273379,41.498 C41.170379,42.317 40.345379,42.28 39.599379,40.449 C38.637379,38.084 39.626379,34.29 40.523379,31.991 C43.069379,33.087 46.037379,34.856 47.076379,37.407 C47.825379,39.246 47.082379,39.91 45.014379,40.789 C44.942379,40.82 44.884379,40.868 44.828379,40.917 C44.302379,39.628 43.735379,38.479 43.164379,37.56 C42.950379,37.215 42.497379,37.109 42.152379,37.323 C41.807379,37.537 41.701379,37.99 41.915379,38.335 Z M57.849379,44.476 C57.538379,44.215 57.074379,44.255 56.814379,44.567 C55.214379,46.478 53.401379,48.212 51.732379,49.657 C51.704379,49.604 51.683379,49.549 51.642379,49.503 C49.468379,47.065 48.595379,45.298 50.569379,43.482 C53.343379,40.931 58.060379,40.516 61.778379,40.673 C61.566379,44.478 60.491379,49.369 58.049379,51.615 C55.887379,53.602 54.750379,52.868 52.836379,50.847 C52.800379,50.809 52.754379,50.789 52.713379,50.761 C54.420379,49.281 56.278379,47.497 57.941379,45.511 C58.201379,45.2 58.160379,44.736 57.849379,44.476 Z M25.128379,30.296 L47.998379,18.562 L70.868379,30.296 L70.868379,57.728 L68.517379,57.728 L68.517379,31.686 C68.517379,31.28 68.188379,30.95 67.782379,30.95 C67.376379,30.95 67.047379,31.28 67.047379,31.686 L67.047379,57.728 L46.770379,57.728 C46.847379,57.454 46.910379,57.171 46.970379,56.886 C46.984379,56.836 46.998379,56.788 47.002379,56.736 C47.117379,56.159 47.210379,55.569 47.266379,54.958 C47.863379,54.558 49.561379,53.389 51.648379,51.665 C51.680379,51.733 51.714379,51.8 51.768379,51.858 C52.959379,53.116 54.235379,54.261 55.789379,54.261 C56.752379,54.261 57.822379,53.822 59.045379,52.697 C62.830379,49.215 63.235379,41.507 63.278379,39.996 C63.290379,39.6 62.985379,39.267 62.589379,39.242 C58.493379,38.989 52.911379,39.331 49.573379,42.4 C46.148379,45.551 49.229379,49.006 50.545379,50.482 C50.577379,50.518 50.620379,50.538 50.658379,50.566 C49.323379,51.667 48.150379,52.537 47.347379,53.111 C47.354379,49.441 46.497379,45.474 45.319379,42.198 C45.409379,42.196 45.501379,42.18 45.589379,42.142 C47.080379,41.508 49.853379,40.329 48.438379,36.853 C47.111379,33.595 43.332379,31.517 40.396379,30.347 C40.027379,30.201 39.609379,30.372 39.450379,30.735 C38.984379,31.801 36.734379,37.307 38.237379,41.004 C39.026379,42.939 40.179379,43.485 41.315379,43.485 C42.222379,43.485 43.117379,43.137 43.807379,42.868 C43.867379,42.845 43.913379,42.804 43.962379,42.768 C45.168379,46.158 45.996379,50.288 45.851379,53.912 C45.327379,53.007 44.675379,52.123 43.888379,51.262 C44.000379,51.218 44.106379,51.155 44.188379,51.055 C44.910379,50.173 46.414379,48.339 44.143379,46.42 C42.119379,44.711 38.899379,44.643 36.556379,44.887 C36.162379,44.929 35.871379,45.275 35.899379,45.67 C35.960379,46.536 36.381379,50.949 38.677379,52.891 C39.515379,53.599 40.194379,53.902 40.794379,53.902 C41.564379,53.902 42.204379,53.402 42.888379,52.617 C42.933379,52.566 42.957379,52.506 42.984379,52.448 C44.203379,53.823 45.044379,55.25 45.505379,56.716 C45.428379,57.064 45.335379,57.401 45.231379,57.728 L28.950379,57.728 L28.950379,31.686 C28.950379,31.28 28.621379,30.95 28.215379,30.95 C27.809379,30.95 27.480379,31.28 27.480379,31.686 L27.480379,57.728 L25.128379,57.728 L25.128379,30.296 Z M78.858379,58.163 C78.720379,57.971 78.497379,57.857 78.261379,57.857 L72.339379,57.857 L72.339379,29.847 C72.339379,29.571 72.184379,29.318 71.939379,29.193 L48.334379,17.081 C48.123379,16.973 47.873379,16.973 47.662379,17.081 L24.057379,29.193 C23.812379,29.318 23.658379,29.571 23.658379,29.847 L23.658379,57.857 L17.735379,57.857 C17.498379,57.857 17.276379,57.971 17.138379,58.163 C17.000379,58.355 16.963379,58.601 17.037379,58.825 L23.093379,76.983 C23.193379,77.283 23.474379,77.486 23.791379,77.486 L72.203379,77.486 C72.519379,77.486 72.800379,77.283 72.900379,76.983 L78.959379,58.825 C79.033379,58.601 78.996379,58.355 78.858379,58.163 Z" id="Fill-13"></path>
                </g>
            </g>
        </g>
    </g>
</svg>